<svg width="112" height="42" viewBox="0 0 112 42" fill="none" xmlns="http://www.w3.org/2000/svg">
<path d="M11.6923 8.6084L7.54973 32.5H0.78215L4.92473 8.6084H11.6923ZM19.5673 18.1445L18.6239 23.4766H7.07805L8.0009 18.1445H19.5673ZM22.0077 8.6084L21.0849 13.9404H8.71867L9.66203 8.6084H22.0077ZM37.6757 27.1885L36.7323 32.5H24.038L24.9814 27.1885H37.6757ZM30.8056 8.6084L26.663 32.5H19.8954L24.038 8.6084H30.8056ZM56.0097 8.6084H62.7773L60.1933 23.9072C59.9335 25.8896 59.2909 27.5508 58.2655 28.8906C57.2402 30.2305 55.9277 31.2354 54.328 31.9053C52.7284 32.5615 50.9579 32.8691 49.0165 32.8281C47.2392 32.8008 45.6396 32.4453 44.2177 31.7617C42.7958 31.0645 41.7021 30.0596 40.9364 28.7471C40.1708 27.4346 39.8905 25.8281 40.0956 23.9277L42.6796 8.6084H49.4677L46.8837 23.9482C46.8017 24.6318 46.8154 25.2402 46.9247 25.7734C47.0478 26.3066 47.3075 26.7305 47.704 27.0449C48.1142 27.3457 48.6952 27.5098 49.4472 27.5371C50.2265 27.5645 50.8896 27.4346 51.4364 27.1475C51.9833 26.8467 52.4208 26.4229 52.7489 25.876C53.0771 25.3291 53.2958 24.6797 53.4052 23.9277L56.0097 8.6084ZM71.8827 8.6084L73.8925 15.8682L78.5068 8.6084L86.5663 8.62891L77.5019 20.8105L82.8339 32.5H75.1435L72.7236 25.0967L67.9247 32.5H59.8241L69.1552 20.1338L64.4589 8.62891L71.8827 8.6084Z" fill="#020B06"/>
<path d="M102.428 0.00970693L111.428 12.5097L109.428 17.0097L105.428 12.0097L104.428 30.0097L100.428 34.0097L99.4277 12.0097L95.4277 17.0097L93.4277 12.5097L102.428 0.00970693Z" fill="#27B469"/>
<path d="M100.428 37.0097L104.428 33.0097L104.428 37.0097L100.428 41.0097L100.428 37.0097Z" fill="#27B469"/>
</svg>
